<svg width="103" height="56" viewBox="0 0 103 56" fill="none" xmlns="http://www.w3.org/2000/svg">
<g id="&#228;&#189;&#142;&#233;&#163;&#142;&#233;&#153;&#169;" clip-path="url(#clip0_22_9014)">
<path id="&#229;&#189;&#162;&#231;&#138;&#182;_36_&#230;&#139;&#183;&#232;&#180;&#157;_5" d="M6.70068 45.02L28.8129 55.7411H73.7074L96.1546 45.3551" stroke="url(#paint0_linear_22_9014)" stroke-width="0.64" stroke-linejoin="round"/>
<path id="&#229;&#189;&#162;&#231;&#138;&#182;_37" fill-rule="evenodd" clip-rule="evenodd" d="M28.813 42.3398V53.0609H73.3725V42.3398H28.813Z" fill="url(#paint1_linear_22_9014)"/>
<path id="&#229;&#189;&#162;&#231;&#138;&#182;_36_&#230;&#139;&#183;&#232;&#180;&#157;" opacity="0.5" d="M73.6528 32.5391L95.5581 42.6748L73.6509 52.8115H28.8716L7.29443 42.3496L29.5347 32.5391H73.6528Z" fill="url(#paint2_linear_22_9014)" stroke="url(#paint3_linear_22_9014)" stroke-width="0.5" stroke-linejoin="round"/>
<path id="&#229;&#189;&#162;&#231;&#138;&#182;_38" opacity="0.5" fill-rule="evenodd" clip-rule="evenodd" d="M73.7075 42.6751V53.0611L96.1548 42.6751V32.2891L73.7075 42.6751Z" fill="url(#paint4_linear_22_9014)"/>
<path id="&#229;&#189;&#162;&#231;&#138;&#182;_35" opacity="0.5" fill-rule="evenodd" clip-rule="evenodd" d="M6.70068 31.9536V42.6747L28.8129 53.3958V42.6747L6.70068 31.9536Z" fill="url(#paint5_linear_22_9014)"/>
<path id="&#231;&#159;&#169;&#229;&#189;&#162;_2_&#230;&#139;&#183;&#232;&#180;&#157;" fill-rule="evenodd" clip-rule="evenodd" d="M73.7076 42.6748V53.0608H73.3726V42.6748H73.7076Z" fill="url(#paint6_linear_22_9014)"/>
<path id="&#231;&#159;&#169;&#229;&#189;&#162;_2_&#230;&#139;&#183;&#232;&#180;&#157;_2" fill-rule="evenodd" clip-rule="evenodd" d="M28.8131 42.3398V52.7259H28.478V42.3398H28.8131Z" fill="url(#paint7_linear_22_9014)"/>
<path id="&#231;&#159;&#169;&#229;&#189;&#162;_3" fill-rule="evenodd" clip-rule="evenodd" d="M25.1273 43.6799V48.3704L23.4521 47.3653V42.6748L25.1273 43.6799Z" fill="#93FF8B"/>
<path id="&#231;&#159;&#169;&#229;&#189;&#162;_3_&#230;&#139;&#183;&#232;&#180;&#157;" fill-rule="evenodd" clip-rule="evenodd" d="M22.1122 42.0046V46.6951L20.437 45.69V40.9995L22.1122 42.0046Z" fill="#35FC56"/>
<path id="&#231;&#159;&#169;&#229;&#189;&#162;_3_&#230;&#139;&#183;&#232;&#180;&#157;_2" fill-rule="evenodd" clip-rule="evenodd" d="M19.097 40.3298V45.0203L17.4219 44.0152V39.3247L19.097 40.3298Z" fill="#28F527"/>
<path id="&#231;&#159;&#169;&#229;&#189;&#162;_3_&#230;&#139;&#183;&#232;&#180;&#157;_3" fill-rule="evenodd" clip-rule="evenodd" d="M77.0576 44.0149V48.7053L78.7328 47.7002V43.0098L77.0576 44.0149Z" fill="#93FF8B"/>
<path id="&#231;&#159;&#169;&#229;&#189;&#162;_3_&#230;&#139;&#183;&#232;&#180;&#157;_3-2" fill-rule="evenodd" clip-rule="evenodd" d="M80.0732 42.3401V47.0305L81.7484 46.0254V41.335L80.0732 42.3401Z" fill="#35FC56"/>
<path id="&#231;&#159;&#169;&#229;&#189;&#162;_3_&#230;&#139;&#183;&#232;&#180;&#157;_3-3" fill-rule="evenodd" clip-rule="evenodd" d="M83.0884 40.6648V45.3552L84.7635 44.3501V39.6597L83.0884 40.6648Z" fill="#28F527"/>
<path id="&#229;&#189;&#162;&#231;&#138;&#182;_36" d="M73.6528 22.1528L95.5581 32.2886L73.6509 42.4253H28.8716L7.29443 31.9634L29.5347 22.1528H73.6528Z" fill="url(#paint8_linear_22_9014)" stroke="url(#paint9_linear_22_9014)" stroke-width="0.5" stroke-linejoin="round"/>
<path id="&#229;&#189;&#162;&#231;&#138;&#182;_36_&#230;&#139;&#183;&#232;&#180;&#157;_2" d="M71.6396 23.8281L88.5352 31.9502L73.3184 39.0742H29.5371L13.668 31.625L31.2119 23.8281H71.6396Z" fill="url(#paint10_linear_22_9014)" stroke="url(#paint11_linear_22_9014)" stroke-width="0.5" stroke-linejoin="round"/>
<path id="&#229;&#189;&#162;&#231;&#138;&#182;_36_&#230;&#139;&#183;&#232;&#180;&#157;_4" opacity="0.5" fill-rule="evenodd" clip-rule="evenodd" d="M25.2817 30.0059L36.569 35.3041H66.7455L77.5738 30.2364L65.593 24.4775L37.7215 24.4779L25.2817 30.0059Z" fill="url(#paint12_linear_22_9014)" fill-opacity="0.9" stroke="url(#paint13_linear_22_9014)" stroke-width="0.5" stroke-linejoin="round"/>
<path id="&#229;&#189;&#162;&#231;&#138;&#182;_36_&#230;&#139;&#183;&#232;&#180;&#157;_3" d="M66.4326 19.9019L78.9258 25.9087L67.6895 31.1694H34.998L23.2754 25.6665L36.2471 19.9019H66.4326Z" fill="url(#paint14_linear_22_9014)" fill-opacity="0.9" stroke="url(#paint15_linear_22_9014)" stroke-width="0.5" stroke-linejoin="round"/>
<path id="&#231;&#159;&#169;&#229;&#189;&#162;_4" opacity="0.3" fill-rule="evenodd" clip-rule="evenodd" d="M28.4779 42.3398L6.70062 31.9537L0 1.04687H102.52L96.1546 32.2887L73.3723 42.3398H28.4779Z" fill="url(#paint16_linear_22_9014)"/>
<path id="&#231;&#159;&#169;&#229;&#189;&#162;_4_&#230;&#139;&#183;&#232;&#180;&#157;" opacity="0.3" fill-rule="evenodd" clip-rule="evenodd" d="M78.8838 24.7812L79.0681 24.8859L78.8838 24.7812Z" fill="url(#paint17_linear_22_9014)"/>
<path id="&#231;&#159;&#169;&#229;&#189;&#162;_4_&#230;&#139;&#183;&#232;&#180;&#157;_2" opacity="0.3" fill-rule="evenodd" clip-rule="evenodd" d="M23.1175 24.4801L18.7319 17.7988H83.0885L79.0681 24.8151L68.012 29.8406H35.1787L23.1175 24.4801Z" fill="url(#paint18_linear_22_9014)"/>
<g id="&#233;&#163;&#142;&#233;&#153;&#169;&#233;&#162;&#132;&#232;&#173;&#166;_ 1">
<g id="Union">
<path d="M55.6417 23.4514C57.2614 23.4512 58.6778 23.1615 59.3145 24.2238C59.4341 24.4234 59.5634 24.7491 59.5011 25.1154C59.2261 26.7315 57.512 26.4066 55.6817 26.4065H43.8624C43.4091 26.4066 42.858 26.4556 42.5186 26.3264C41.7904 26.0492 41.1837 25.0778 41.7335 24.1701C41.8905 23.9112 42.159 23.6784 42.4522 23.5578C42.5984 23.5224 42.7445 23.4867 42.8907 23.4514H55.6417Z" fill="url(#paint19_linear_22_9014)"/>
<path d="M51.0626 8.37325C51.6271 8.45941 52.1399 8.48948 52.6202 8.63888C54.8226 9.32405 56.3399 10.8795 56.9991 13.1115C57.2752 14.0467 57.1983 15.3706 57.1983 16.5715C57.1984 18.5676 57.1983 20.5646 57.1983 22.5608H44.169V16.5852C44.169 15.381 44.0907 14.0494 44.3683 13.1115C44.8887 11.3537 45.8974 10.1298 47.3233 9.27755C47.9462 8.90541 48.6486 8.64294 49.4786 8.46603C49.7535 8.43946 50.0289 8.41252 50.3038 8.38595C50.5566 8.38144 50.8098 8.37761 51.0626 8.37325Z" fill="url(#paint20_linear_22_9014)"/>
<path d="M62.255 10.8752C63.1386 10.8659 63.7368 11.7943 63.1866 12.5393C62.887 12.9443 62.3658 12.9299 61.7628 13.0442C61.1684 13.1328 60.5739 13.222 59.9796 13.3108C59.7143 13.3619 59.3661 13.4687 59.0606 13.4035C58.715 13.3298 58.4177 13.1092 58.2892 12.8186C58.0299 12.2326 58.3671 11.6233 58.795 11.4338C59.0422 11.3245 59.3582 11.3339 59.6602 11.2746C60.2501 11.1816 60.84 11.0884 61.4298 10.9953C61.7046 10.9554 61.98 10.9151 62.255 10.8752Z" fill="url(#paint21_linear_22_9014)"/>
<path d="M38.8985 10.343C39.2779 10.3347 39.5516 10.4209 39.8565 10.4885C40.4421 10.6038 41.0278 10.7199 41.6134 10.8352C42.0546 10.9385 42.5231 10.9442 42.7979 11.2072C43.0804 11.4779 43.2802 12.0529 43.0108 12.4983C42.8642 12.7406 42.6089 12.9336 42.2921 13.0041C41.9613 13.0776 41.6154 12.9479 41.3477 12.885C40.7622 12.7697 40.1764 12.6537 39.5909 12.5383C39.1405 12.4328 38.6608 12.4184 38.3526 12.1789C37.9231 11.8448 37.8583 10.9719 38.3126 10.6086C38.4877 10.4686 38.6658 10.4423 38.8985 10.343Z" fill="url(#paint22_linear_22_9014)"/>
<path d="M58.2892 3.90157C59.051 3.88792 59.7799 4.47189 59.4474 5.29903C59.2862 5.69968 58.903 5.95428 58.6485 6.26974C58.3069 6.65125 57.9657 7.03376 57.6241 7.41525C57.4428 7.64027 57.2398 7.933 56.9981 8.09396C56.7273 8.27434 56.1967 8.33189 55.88 8.14669C55.4667 7.90487 55.1436 7.25166 55.4806 6.6965C55.8178 6.3194 56.1551 5.94178 56.4923 5.56466C56.7584 5.26758 57.025 4.97017 57.2911 4.67306C57.4653 4.45681 57.6507 4.19586 57.8897 4.04708C58.0229 3.99837 58.1562 3.95035 58.2892 3.90157Z" fill="url(#paint23_linear_22_9014)"/>
<path d="M43.1573 3.5422C43.5007 3.54037 43.7366 3.63219 43.9288 3.78146C44.4212 4.38469 44.9141 4.98864 45.4063 5.592C45.6525 5.908 46.0193 6.20221 46.1788 6.59005C46.4024 7.13377 46.0741 7.66467 45.7394 7.86739C45.386 8.08136 44.8395 8.01909 44.5411 7.80099C44.1868 7.5418 43.9069 7.05734 43.6368 6.71017C43.3663 6.37736 43.0949 6.04382 42.8243 5.71114C42.4497 5.22972 41.8404 4.66599 42.4249 3.91427C42.6093 3.6771 42.8463 3.66609 43.1573 3.5422Z" fill="url(#paint24_linear_22_9014)"/>
<path d="M50.7169 1.00021C52.1949 0.979723 51.8878 2.48744 51.8878 3.90157C51.8878 4.49543 51.9888 5.2474 51.755 5.63204C51.5886 5.90579 51.3095 6.07524 50.9298 6.1379C50.7076 6.17443 50.5002 6.08395 50.3702 6.01778C49.5568 5.60318 49.7852 4.38944 49.7852 3.20919C49.7852 2.71486 49.6804 2.05027 49.838 1.66525C50.0106 1.24378 50.2895 1.17785 50.7169 1.00021Z" fill="url(#paint25_linear_22_9014)"/>
</g>
</g>
</g>
<defs>
<linearGradient id="paint0_linear_22_9014" x1="95.6503" y1="55.6754" x2="95.6503" y2="45.0753" gradientUnits="userSpaceOnUse">
<stop stop-color="#25FF1B"/>
<stop offset="1" stop-color="#116E0C" stop-opacity="0.01"/>
</linearGradient>
<linearGradient id="paint1_linear_22_9014" x1="28.9438" y1="53.0452" x2="73.3725" y2="53.0452" gradientUnits="userSpaceOnUse">
<stop stop-color="#008816"/>
<stop offset="0.497326" stop-color="#23FC46"/>
<stop offset="1" stop-color="#008816"/>
</linearGradient>
<linearGradient id="paint2_linear_22_9014" x1="95.7059" y1="52.8527" x2="95.7059" y2="32.2891" gradientUnits="userSpaceOnUse">
<stop stop-color="#23FC46"/>
<stop offset="1" stop-color="#008816"/>
</linearGradient>
<linearGradient id="paint3_linear_22_9014" x1="96.1546" y1="53.0611" x2="96.1546" y2="32.2891" gradientUnits="userSpaceOnUse">
<stop stop-color="#23FC46"/>
<stop offset="1" stop-color="#008816"/>
</linearGradient>
<linearGradient id="paint4_linear_22_9014" x1="79.0366" y1="58.3947" x2="101.495" y2="45.542" gradientUnits="userSpaceOnUse">
<stop stop-color="#23FC46"/>
<stop offset="1" stop-color="#008816"/>
</linearGradient>
<linearGradient id="paint5_linear_22_9014" x1="11.9503" y1="58.9013" x2="34.5717" y2="46.5469" gradientUnits="userSpaceOnUse">
<stop stop-color="#23FC46"/>
<stop offset="1" stop-color="#008816"/>
</linearGradient>
<linearGradient id="paint6_linear_22_9014" x1="73.3742" y1="42.7243" x2="73.3742" y2="53.0057" gradientUnits="userSpaceOnUse">
<stop stop-color="#BEFFBD"/>
<stop offset="1" stop-color="#70E467"/>
</linearGradient>
<linearGradient id="paint7_linear_22_9014" x1="28.4788" y1="42.3893" x2="28.4788" y2="52.7259" gradientUnits="userSpaceOnUse">
<stop stop-color="#BEFFBD"/>
<stop offset="0.994668" stop-color="#70E467"/>
</linearGradient>
<linearGradient id="paint8_linear_22_9014" x1="-378.156" y1="42.6423" x2="-378.156" y2="21.9028" gradientUnits="userSpaceOnUse">
<stop stop-color="#23FC46"/>
<stop offset="1" stop-color="#008816"/>
</linearGradient>
<linearGradient id="paint9_linear_22_9014" x1="-378.273" y1="42.6749" x2="-378.273" y2="21.9902" gradientUnits="userSpaceOnUse">
<stop stop-color="#C9FFBD"/>
<stop offset="1" stop-color="#1E8401"/>
</linearGradient>
<linearGradient id="paint10_linear_22_9014" x1="89.119" y1="39.3247" x2="89.119" y2="23.5781" gradientUnits="userSpaceOnUse">
<stop stop-color="#007D0F"/>
<stop offset="0.997992" stop-color="#014C00"/>
</linearGradient>
<linearGradient id="paint11_linear_22_9014" x1="-314.074" y1="39.3247" x2="-314.074" y2="23.5781" gradientUnits="userSpaceOnUse">
<stop stop-color="#CCFFBD"/>
<stop offset="1" stop-color="#1E8401"/>
</linearGradient>
<linearGradient id="paint12_linear_22_9014" x1="77.3386" y1="35.3041" x2="77.3386" y2="24.5749" gradientUnits="userSpaceOnUse">
<stop stop-color="#16E007"/>
<stop offset="1" stop-color="#004C0E"/>
</linearGradient>
<linearGradient id="paint13_linear_22_9014" x1="-396.982" y1="35.1743" x2="-396.982" y2="24.4785" gradientUnits="userSpaceOnUse">
<stop stop-color="#BDFFBE"/>
<stop offset="1" stop-color="#01842D"/>
</linearGradient>
<linearGradient id="paint14_linear_22_9014" x1="79.5099" y1="31.4199" x2="79.5099" y2="19.6519" gradientUnits="userSpaceOnUse">
<stop stop-color="#07E00C"/>
<stop offset="1" stop-color="#004C11"/>
</linearGradient>
<linearGradient id="paint15_linear_22_9014" x1="-221.801" y1="31.4199" x2="-221.801" y2="19.6519" gradientUnits="userSpaceOnUse">
<stop stop-color="#CCFFBD"/>
<stop offset="1" stop-color="#1E8401"/>
</linearGradient>
<linearGradient id="paint16_linear_22_9014" x1="97.0565" y1="42.3398" x2="97.0565" y2="5.44825" gradientUnits="userSpaceOnUse">
<stop stop-color="#0CC422"/>
<stop offset="1" stop-color="#13E400" stop-opacity="0.01"/>
</linearGradient>
<linearGradient id="paint17_linear_22_9014" x1="79.0681" y1="24.8859" x2="79.0681" y2="24.7812" gradientUnits="userSpaceOnUse">
<stop stop-color="#0CA2C4"/>
<stop offset="0.656" stop-color="#04ACD9" stop-opacity="0.01"/>
</linearGradient>
<linearGradient id="paint18_linear_22_9014" x1="72.0185" y1="29.8406" x2="72.0185" y2="21.9414" gradientUnits="userSpaceOnUse">
<stop stop-color="#0EC40C"/>
<stop offset="1" stop-color="#16D904" stop-opacity="0.01"/>
</linearGradient>
<linearGradient id="paint19_linear_22_9014" x1="50.6991" y1="1" x2="50.6991" y2="26.4333" gradientUnits="userSpaceOnUse">
<stop stop-color="#44ED9B"/>
<stop offset="1" stop-color="white"/>
</linearGradient>
<linearGradient id="paint20_linear_22_9014" x1="50.6991" y1="1" x2="50.6991" y2="26.4333" gradientUnits="userSpaceOnUse">
<stop stop-color="#44ED9B"/>
<stop offset="1" stop-color="white"/>
</linearGradient>
<linearGradient id="paint21_linear_22_9014" x1="50.6991" y1="1" x2="50.6991" y2="26.4333" gradientUnits="userSpaceOnUse">
<stop stop-color="#44ED9B"/>
<stop offset="1" stop-color="white"/>
</linearGradient>
<linearGradient id="paint22_linear_22_9014" x1="50.6991" y1="1" x2="50.6991" y2="26.4333" gradientUnits="userSpaceOnUse">
<stop stop-color="#44ED9B"/>
<stop offset="1" stop-color="white"/>
</linearGradient>
<linearGradient id="paint23_linear_22_9014" x1="50.6991" y1="1" x2="50.6991" y2="26.4333" gradientUnits="userSpaceOnUse">
<stop stop-color="#44ED9B"/>
<stop offset="1" stop-color="white"/>
</linearGradient>
<linearGradient id="paint24_linear_22_9014" x1="50.6991" y1="1" x2="50.6991" y2="26.4333" gradientUnits="userSpaceOnUse">
<stop stop-color="#44ED9B"/>
<stop offset="1" stop-color="white"/>
</linearGradient>
<linearGradient id="paint25_linear_22_9014" x1="50.6991" y1="1" x2="50.6991" y2="26.4333" gradientUnits="userSpaceOnUse">
<stop stop-color="#44ED9B"/>
<stop offset="1" stop-color="white"/>
</linearGradient>
<clipPath id="clip0_22_9014">
<rect width="103" height="56" fill="white"/>
</clipPath>
</defs>
</svg>
