<svg width="132" height="110" viewBox="0 0 132 110" fill="none" xmlns="http://www.w3.org/2000/svg">
<g id="Frame 10589">
<g id="Group 1321315890">
<g id="Rectangle 34624205">
<g filter="url(#filter0_i_545_4114)">
<path d="M0 4C0 1.79086 1.79086 0 4 0H35.2228C37.432 0 39.2228 1.79086 39.2228 4V45.5495C39.2228 47.7587 37.432 49.5495 35.2228 49.5495H4.00001C1.79087 49.5495 0 47.7587 0 45.5495V4Z" fill="#0074FA" fill-opacity="0.3"/>
</g>
<path d="M4 0.5H35.2227C37.1557 0.5 38.7227 2.067 38.7227 4V45.5498C38.7225 47.4827 37.1556 49.0498 35.2227 49.0498H4C2.06709 49.0498 0.500144 47.4827 0.5 45.5498V4C0.5 2.067 2.067 0.5 4 0.5Z" stroke="#CBF2FF"/>
</g>
<g id="Rectangle 34624207">
<g filter="url(#filter1_i_545_4114)">
<path d="M47.5195 4C47.5195 1.79086 49.3104 0 51.5195 0H81.2338C83.4429 0 85.2338 1.79086 85.2338 4V45.5495C85.2338 47.7587 83.4429 49.5495 81.2338 49.5495H51.5195C49.3104 49.5495 47.5195 47.7587 47.5195 45.5495V4Z" fill="#0074FA" fill-opacity="0.3"/>
</g>
<path d="M51.5195 0.5H81.2334C83.1664 0.5 84.7334 2.067 84.7334 4V45.5498C84.7333 47.4827 83.1663 49.0498 81.2334 49.0498H51.5195C49.5866 49.0498 48.0197 47.4827 48.0195 45.5498V4C48.0195 2.067 49.5865 0.5 51.5195 0.5Z" stroke="#CBF2FF"/>
</g>
<g id="Rectangle 34624209">
<g filter="url(#filter2_i_545_4114)">
<path d="M93.5312 4C93.5312 1.79086 95.3221 0 97.5312 0H128C130.209 0 132 1.79086 132 4V45.5495C132 47.7587 130.209 49.5495 128 49.5495H97.5313C95.3221 49.5495 93.5312 47.7587 93.5312 45.5495V4Z" fill="#0074FA" fill-opacity="0.3"/>
</g>
<path d="M97.5312 0.5H128C129.933 0.500115 131.5 2.06708 131.5 4V45.5498C131.5 47.4826 129.933 49.0497 128 49.0498H97.5312C95.5983 49.0498 94.0314 47.4827 94.0312 45.5498V4C94.0312 2.067 95.5983 0.5 97.5312 0.5Z" stroke="#CBF2FF"/>
</g>
<g id="Rectangle 34624206">
<g filter="url(#filter3_i_545_4114)">
<path d="M0 64.4502C0 62.2411 1.79086 60.4502 4 60.4502H35.2228C37.432 60.4502 39.2228 62.2411 39.2228 64.4502V106C39.2228 108.209 37.432 110 35.2228 110H4.00001C1.79087 110 0 108.209 0 106V64.4502Z" fill="#0074FA" fill-opacity="0.3"/>
</g>
<path d="M4 60.9502H35.2227C37.1557 60.9502 38.7227 62.5172 38.7227 64.4502V106C38.7225 107.933 37.1556 109.5 35.2227 109.5H4C2.06709 109.5 0.500144 107.933 0.5 106V64.4502C0.5 62.5172 2.067 60.9502 4 60.9502Z" stroke="#CBF2FF"/>
</g>
<g id="Rectangle 34624208">
<g filter="url(#filter4_i_545_4114)">
<path d="M47.5195 64.4502C47.5195 62.2411 49.3104 60.4502 51.5195 60.4502H81.2338C83.4429 60.4502 85.2338 62.2411 85.2338 64.4502V106C85.2338 108.209 83.4429 110 81.2338 110H51.5195C49.3104 110 47.5195 108.209 47.5195 106V64.4502Z" fill="#0074FA" fill-opacity="0.3"/>
</g>
<path d="M51.5195 60.9502H81.2334C83.1664 60.9502 84.7334 62.5172 84.7334 64.4502V106C84.7333 107.933 83.1663 109.5 81.2334 109.5H51.5195C49.5866 109.5 48.0197 107.933 48.0195 106V64.4502C48.0195 62.5172 49.5865 60.9502 51.5195 60.9502Z" stroke="#CBF2FF"/>
</g>
<g id="Rectangle 34624210">
<g filter="url(#filter5_i_545_4114)">
<path d="M93.5312 64.4502C93.5312 62.2411 95.3221 60.4502 97.5312 60.4502H128C130.209 60.4502 132 62.2411 132 64.4502V106C132 108.209 130.209 110 128 110H97.5313C95.3221 110 93.5312 108.209 93.5312 106V64.4502Z" fill="#0074FA" fill-opacity="0.3"/>
</g>
<path d="M97.5312 60.9502H128C129.933 60.9503 131.5 62.5173 131.5 64.4502V106C131.5 107.933 129.933 109.5 128 109.5H97.5312C95.5983 109.5 94.0314 107.933 94.0312 106V64.4502C94.0312 62.5172 95.5983 60.9502 97.5312 60.9502Z" stroke="#CBF2FF"/>
</g>
</g>
</g>
<defs>
<filter id="filter0_i_545_4114" x="0" y="0" width="39.2227" height="49.5498" filterUnits="userSpaceOnUse" color-interpolation-filters="sRGB">
<feFlood flood-opacity="0" result="BackgroundImageFix"/>
<feBlend mode="normal" in="SourceGraphic" in2="BackgroundImageFix" result="shape"/>
<feColorMatrix in="SourceAlpha" type="matrix" values="0 0 0 0 0 0 0 0 0 0 0 0 0 0 0 0 0 0 127 0" result="hardAlpha"/>
<feOffset/>
<feGaussianBlur stdDeviation="10"/>
<feComposite in2="hardAlpha" operator="arithmetic" k2="-1" k3="1"/>
<feColorMatrix type="matrix" values="0 0 0 0 0.349038 0 0 0 0 0.652182 0 0 0 0 1 0 0 0 1 0"/>
<feBlend mode="normal" in2="shape" result="effect1_innerShadow_545_4114"/>
</filter>
<filter id="filter1_i_545_4114" x="47.5195" y="0" width="37.7148" height="49.5498" filterUnits="userSpaceOnUse" color-interpolation-filters="sRGB">
<feFlood flood-opacity="0" result="BackgroundImageFix"/>
<feBlend mode="normal" in="SourceGraphic" in2="BackgroundImageFix" result="shape"/>
<feColorMatrix in="SourceAlpha" type="matrix" values="0 0 0 0 0 0 0 0 0 0 0 0 0 0 0 0 0 0 127 0" result="hardAlpha"/>
<feOffset/>
<feGaussianBlur stdDeviation="10"/>
<feComposite in2="hardAlpha" operator="arithmetic" k2="-1" k3="1"/>
<feColorMatrix type="matrix" values="0 0 0 0 0.349038 0 0 0 0 0.652182 0 0 0 0 1 0 0 0 1 0"/>
<feBlend mode="normal" in2="shape" result="effect1_innerShadow_545_4114"/>
</filter>
<filter id="filter2_i_545_4114" x="93.5312" y="0" width="38.4688" height="49.5498" filterUnits="userSpaceOnUse" color-interpolation-filters="sRGB">
<feFlood flood-opacity="0" result="BackgroundImageFix"/>
<feBlend mode="normal" in="SourceGraphic" in2="BackgroundImageFix" result="shape"/>
<feColorMatrix in="SourceAlpha" type="matrix" values="0 0 0 0 0 0 0 0 0 0 0 0 0 0 0 0 0 0 127 0" result="hardAlpha"/>
<feOffset/>
<feGaussianBlur stdDeviation="10"/>
<feComposite in2="hardAlpha" operator="arithmetic" k2="-1" k3="1"/>
<feColorMatrix type="matrix" values="0 0 0 0 0.349038 0 0 0 0 0.652182 0 0 0 0 1 0 0 0 1 0"/>
<feBlend mode="normal" in2="shape" result="effect1_innerShadow_545_4114"/>
</filter>
<filter id="filter3_i_545_4114" x="0" y="60.4502" width="39.2227" height="49.5498" filterUnits="userSpaceOnUse" color-interpolation-filters="sRGB">
<feFlood flood-opacity="0" result="BackgroundImageFix"/>
<feBlend mode="normal" in="SourceGraphic" in2="BackgroundImageFix" result="shape"/>
<feColorMatrix in="SourceAlpha" type="matrix" values="0 0 0 0 0 0 0 0 0 0 0 0 0 0 0 0 0 0 127 0" result="hardAlpha"/>
<feOffset/>
<feGaussianBlur stdDeviation="10"/>
<feComposite in2="hardAlpha" operator="arithmetic" k2="-1" k3="1"/>
<feColorMatrix type="matrix" values="0 0 0 0 0.349038 0 0 0 0 0.652182 0 0 0 0 1 0 0 0 1 0"/>
<feBlend mode="normal" in2="shape" result="effect1_innerShadow_545_4114"/>
</filter>
<filter id="filter4_i_545_4114" x="47.5195" y="60.4502" width="37.7148" height="49.5498" filterUnits="userSpaceOnUse" color-interpolation-filters="sRGB">
<feFlood flood-opacity="0" result="BackgroundImageFix"/>
<feBlend mode="normal" in="SourceGraphic" in2="BackgroundImageFix" result="shape"/>
<feColorMatrix in="SourceAlpha" type="matrix" values="0 0 0 0 0 0 0 0 0 0 0 0 0 0 0 0 0 0 127 0" result="hardAlpha"/>
<feOffset/>
<feGaussianBlur stdDeviation="10"/>
<feComposite in2="hardAlpha" operator="arithmetic" k2="-1" k3="1"/>
<feColorMatrix type="matrix" values="0 0 0 0 0.349038 0 0 0 0 0.652182 0 0 0 0 1 0 0 0 1 0"/>
<feBlend mode="normal" in2="shape" result="effect1_innerShadow_545_4114"/>
</filter>
<filter id="filter5_i_545_4114" x="93.5312" y="60.4502" width="38.4688" height="49.5498" filterUnits="userSpaceOnUse" color-interpolation-filters="sRGB">
<feFlood flood-opacity="0" result="BackgroundImageFix"/>
<feBlend mode="normal" in="SourceGraphic" in2="BackgroundImageFix" result="shape"/>
<feColorMatrix in="SourceAlpha" type="matrix" values="0 0 0 0 0 0 0 0 0 0 0 0 0 0 0 0 0 0 127 0" result="hardAlpha"/>
<feOffset/>
<feGaussianBlur stdDeviation="10"/>
<feComposite in2="hardAlpha" operator="arithmetic" k2="-1" k3="1"/>
<feColorMatrix type="matrix" values="0 0 0 0 0.349038 0 0 0 0 0.652182 0 0 0 0 1 0 0 0 1 0"/>
<feBlend mode="normal" in2="shape" result="effect1_innerShadow_545_4114"/>
</filter>
</defs>
</svg>
