<svg width="152" height="145" viewBox="0 0 152 145" fill="none" xmlns="http://www.w3.org/2000/svg">
<g id="&#231;&#166;&#187;&#231;&#186;&#191;&#232;&#174;&#190;&#229;&#164;&#135;">
<path id="&#231;&#159;&#169;&#229;&#189;&#162;" d="M150 124.876L76.0039 144.74L2.00684 124.876L76.0039 106.667L150 124.876Z" fill="#890303" fill-opacity="0.3" stroke="url(#paint0_linear_597_2959)" stroke-width="0.5"/>
<path id="&#231;&#159;&#169;&#229;&#189;&#162;_2" opacity="0.8" d="M76.0048 101.376L140.892 114.799V122.349L76.0048 139.966L11.1172 122.349V114.799L76.0048 101.376Z" fill="url(#paint1_linear_597_2959)"/>
<path id="&#231;&#159;&#169;&#229;&#189;&#162;_3" fill-rule="evenodd" clip-rule="evenodd" d="M151.004 27.5518V113.122L76.0039 133.256L1.00391 113.122V27.5518H151.004Z" fill="url(#paint2_linear_597_2959)"/>
<path id="&#231;&#159;&#169;&#229;&#189;&#162;_4" opacity="0.8" d="M151.004 107.249V113.121L76.0039 133.256L1.00391 113.121V107.249H151.004Z" fill="url(#paint3_linear_597_2959)"/>
<path id="&#231;&#159;&#169;&#229;&#189;&#162;_5" fill-rule="evenodd" clip-rule="evenodd" d="M76.0039 88.792L151.004 107.248L76.0039 127.382L1.00391 107.248L76.0039 88.792Z" fill="#FFADAD"/>
<g id="&#231;&#159;&#169;&#229;&#189;&#162;_6" filter="url(#filter0_d_597_2959)">
<path fill-rule="evenodd" clip-rule="evenodd" d="M130.777 91.7441V106.41L76.0018 121.511L21.2266 106.41V91.842L130.777 91.7441Z" fill="url(#paint4_linear_597_2959)"/>
</g>
<path id="&#231;&#159;&#169;&#229;&#189;&#162;_7" fill-rule="evenodd" clip-rule="evenodd" d="M76.0018 77.0479L130.777 92.1484L76.0018 107.249L21.2266 92.1484L76.0018 77.0479Z" fill="url(#paint5_linear_597_2959)"/>
<path id="&#231;&#159;&#169;&#229;&#189;&#162;_8" opacity="0.499605" fill-rule="evenodd" clip-rule="evenodd" d="M21.2266 0H130.777V92.1469L76.0018 107.247L21.2266 92.1469V0Z" fill="url(#paint6_linear_597_2959)"/>
<g id="&#230;&#164;&#173;&#229;&#156;&#134;&#229;&#189;&#162;" opacity="0.408242" filter="url(#filter1_f_597_2959)">
<ellipse cx="76.0013" cy="103.892" rx="17.6966" ry="17.6173" fill="white" style="mix-blend-mode:lighten"/>
</g>
<g id="&#229;&#189;&#162;&#231;&#138;&#182;&#231;&#187;&#147;&#229;&#144;&#136;" opacity="0.74267" filter="url(#filter2_f_597_2959)">
<path d="M130.781 106.41L76.4365 121.392C76.1548 121.469 75.857 121.469 75.5752 121.392L21.2305 106.41V104.732L75.5752 119.714C75.857 119.792 76.1548 119.792 76.4365 119.714L130.781 104.732V106.41ZM130.781 92.9873L76.4365 107.97C76.1548 108.047 75.8569 108.047 75.5752 107.97L21.2305 92.9873V91.3096L75.5752 106.291C75.857 106.369 76.1548 106.369 76.4365 106.291L130.781 91.3096V92.9873Z" fill="url(#paint7_linear_597_2959)"/>
</g>
<g id="&#229;&#189;&#162;&#231;&#138;&#182;&#231;&#187;&#147;&#229;&#144;&#136;_2" opacity="0.507972" filter="url(#filter3_f_597_2959)">
<path d="M130.781 118.153L76.4365 133.136C76.1548 133.213 75.857 133.213 75.5752 133.136L21.2305 118.153V117.314L75.5752 132.297C75.857 132.375 76.1548 132.375 76.4365 132.297L130.781 117.314V118.153ZM130.781 112.281L76.4365 127.264C76.1548 127.341 75.857 127.341 75.5752 127.264L21.2305 112.281V111.442L75.5752 126.425C75.857 126.502 76.1548 126.502 76.4365 126.425L130.781 111.442V112.281Z" fill="url(#paint8_linear_597_2959)"/>
</g>
<path id="&#231;&#159;&#169;&#229;&#189;&#162;_9" opacity="0.28056" fill-rule="evenodd" clip-rule="evenodd" d="M76.0039 9.0957L151.004 27.5519L76.0039 47.686L1.00391 27.5519L76.0039 9.0957Z" fill="#D8D8D8" fill-opacity="0.01" stroke="url(#paint9_linear_597_2959)" stroke-width="0.5" stroke-linejoin="round"/>
<path id="&#231;&#159;&#169;&#229;&#189;&#162;_10" opacity="0.394366" d="M129.836 15.3027L76.002 30.1436L22.167 15.3027L76.002 0.460938L129.836 15.3027Z" fill="#FFD8D8" stroke="url(#paint10_linear_597_2959)" stroke-width="0.5"/>
<path id="&#231;&#159;&#169;&#229;&#189;&#162;_11" fill-rule="evenodd" clip-rule="evenodd" d="M117.297 36.7793L118.982 35.9404V77.8864H117.297V36.7793Z" fill="url(#paint11_linear_597_2959)"/>
<g id="&#229;&#189;&#162;&#231;&#138;&#182;&#231;&#187;&#147;&#229;&#144;&#136;_3" filter="url(#filter4_f_597_2959)">
<path d="M126.146 106.41C127.309 106.41 128.253 107.35 128.253 108.508C128.253 109.666 127.309 110.605 126.146 110.605C124.982 110.605 124.039 109.666 124.039 108.508C124.039 107.35 124.982 106.41 126.146 106.41ZM26.708 74.5312C27.8714 74.5312 28.8152 75.4698 28.8154 76.6279C28.8154 77.7862 27.8715 78.7256 26.708 78.7256C25.5446 78.7254 24.6016 77.7861 24.6016 76.6279C24.6018 75.4699 25.5447 74.5314 26.708 74.5312ZM49.458 16.6475C50.6215 16.6475 51.5653 17.5859 51.5654 18.7441C51.5654 19.9024 50.6215 20.8418 49.458 20.8418C48.2946 20.8416 47.3516 19.9023 47.3516 18.7441C47.3517 17.586 48.2947 16.6476 49.458 16.6475Z" fill="#FFB4B4"/>
</g>
<path id="&#231;&#159;&#169;&#229;&#189;&#162;_12" fill-rule="evenodd" clip-rule="evenodd" d="M11.1172 77.0479H12.8026V118.155H11.1172V77.0479Z" fill="url(#paint12_linear_597_2959)"/>
<path id="&#231;&#159;&#169;&#229;&#189;&#162;_13" fill-rule="evenodd" clip-rule="evenodd" d="M139.203 98.8594H140.889V139.966H139.203V98.8594Z" fill="url(#paint13_linear_597_2959)"/>
<path id="&#229;&#189;&#162;&#231;&#138;&#182;&#231;&#187;&#147;&#229;&#144;&#136;_4" opacity="0.501939" d="M2.68945 113.121H1.00391V27.5518H2.68945V113.121ZM151.002 113.121H149.316V27.5518H151.002V113.121Z" fill="url(#paint14_linear_597_2959)"/>
</g>
<defs>
<filter id="filter0_d_597_2959" x="16.2266" y="88.7441" width="119.551" height="39.7666" filterUnits="userSpaceOnUse" color-interpolation-filters="sRGB">
<feFlood flood-opacity="0" result="BackgroundImageFix"/>
<feColorMatrix in="SourceAlpha" type="matrix" values="0 0 0 0 0 0 0 0 0 0 0 0 0 0 0 0 0 0 127 0" result="hardAlpha"/>
<feOffset dy="2"/>
<feGaussianBlur stdDeviation="2.5"/>
<feColorMatrix type="matrix" values="0 0 0 0 0.125115 0 0 0 0 0.197385 0 0 0 0 0.368494 0 0 0 0.5 0"/>
<feBlend mode="normal" in2="BackgroundImageFix" result="effect1_dropShadow_597_2959"/>
<feBlend mode="normal" in="SourceGraphic" in2="effect1_dropShadow_597_2959" result="shape"/>
</filter>
<filter id="filter1_f_597_2959" x="47.2956" y="75.2654" width="57.4126" height="57.2525" filterUnits="userSpaceOnUse" color-interpolation-filters="sRGB">
<feFlood flood-opacity="0" result="BackgroundImageFix"/>
<feBlend mode="normal" in="SourceGraphic" in2="BackgroundImageFix" result="shape"/>
<feGaussianBlur stdDeviation="5.50452" result="effect1_foregroundBlur_597_2959"/>
</filter>
<filter id="filter2_f_597_2959" x="20.7901" y="90.8692" width="110.432" height="31.0213" filterUnits="userSpaceOnUse" color-interpolation-filters="sRGB">
<feFlood flood-opacity="0" result="BackgroundImageFix"/>
<feBlend mode="normal" in="SourceGraphic" in2="BackgroundImageFix" result="shape"/>
<feGaussianBlur stdDeviation="0.220181" result="effect1_foregroundBlur_597_2959"/>
</filter>
<filter id="filter3_f_597_2959" x="20.7901" y="111.002" width="110.432" height="22.6327" filterUnits="userSpaceOnUse" color-interpolation-filters="sRGB">
<feFlood flood-opacity="0" result="BackgroundImageFix"/>
<feBlend mode="normal" in="SourceGraphic" in2="BackgroundImageFix" result="shape"/>
<feGaussianBlur stdDeviation="0.220181" result="effect1_foregroundBlur_597_2959"/>
</filter>
<filter id="filter4_f_597_2959" x="23.5007" y="15.5466" width="105.854" height="96.1598" filterUnits="userSpaceOnUse" color-interpolation-filters="sRGB">
<feFlood flood-opacity="0" result="BackgroundImageFix"/>
<feBlend mode="normal" in="SourceGraphic" in2="BackgroundImageFix" result="shape"/>
<feGaussianBlur stdDeviation="0.550452" result="effect1_foregroundBlur_597_2959"/>
</filter>
<linearGradient id="paint0_linear_597_2959" x1="33.576" y1="123.169" x2="33.576" y2="144.999" gradientUnits="userSpaceOnUse">
<stop stop-color="#890303" stop-opacity="0.01"/>
<stop offset="1" stop-color="#890303"/>
</linearGradient>
<linearGradient id="paint1_linear_597_2959" x1="140.892" y1="101.376" x2="11.1172" y2="101.376" gradientUnits="userSpaceOnUse">
<stop stop-color="#EB4747"/>
<stop offset="0.562637" stop-color="#FF8D8D"/>
<stop offset="1" stop-color="#EB4747"/>
</linearGradient>
<linearGradient id="paint2_linear_597_2959" x1="151.004" y1="133.256" x2="151.004" y2="27.5518" gradientUnits="userSpaceOnUse">
<stop stop-color="white"/>
<stop offset="1" stop-color="#F02727" stop-opacity="0.01"/>
</linearGradient>
<linearGradient id="paint3_linear_597_2959" x1="151.004" y1="107.249" x2="1.00391" y2="107.249" gradientUnits="userSpaceOnUse">
<stop stop-color="#EB4747"/>
<stop offset="0.562637" stop-color="#FF8D8D"/>
<stop offset="1" stop-color="#EB4747"/>
</linearGradient>
<linearGradient id="paint4_linear_597_2959" x1="127.634" y1="90.0362" x2="22.415" y2="112.255" gradientUnits="userSpaceOnUse">
<stop stop-color="#A94A4A"/>
<stop offset="0.499371" stop-color="#EB4747"/>
<stop offset="1" stop-color="#A94A4A"/>
</linearGradient>
<linearGradient id="paint5_linear_597_2959" x1="130.777" y1="77.0479" x2="21.2266" y2="77.0479" gradientUnits="userSpaceOnUse">
<stop stop-color="#B84545"/>
<stop offset="1" stop-color="#FF8B79"/>
</linearGradient>
<linearGradient id="paint6_linear_597_2959" x1="21.2266" y1="11.7784" x2="21.2266" y2="107.247" gradientUnits="userSpaceOnUse">
<stop stop-color="#FB9B9B" stop-opacity="0.01"/>
<stop offset="1" stop-color="#F02727"/>
</linearGradient>
<linearGradient id="paint7_linear_597_2959" x1="119.193" y1="94.9243" x2="35.9197" y2="94.9243" gradientUnits="userSpaceOnUse">
<stop stop-color="#FF8080" stop-opacity="0.01"/>
<stop offset="0.149824" stop-color="#FF8080"/>
<stop offset="0.511463" stop-color="#EBF8FF"/>
<stop offset="0.84844" stop-color="#FF8080"/>
<stop offset="1" stop-color="#FF8080" stop-opacity="0.01"/>
</linearGradient>
<linearGradient id="paint8_linear_597_2959" x1="119.193" y1="114.051" x2="35.9197" y2="114.051" gradientUnits="userSpaceOnUse">
<stop stop-color="#FF8080" stop-opacity="0.01"/>
<stop offset="0.511463" stop-color="#FFE0E0"/>
<stop offset="1" stop-color="#FF8080" stop-opacity="0.01"/>
</linearGradient>
<linearGradient id="paint9_linear_597_2959" x1="12.4901" y1="15.0058" x2="12.4901" y2="47.686" gradientUnits="userSpaceOnUse">
<stop stop-color="#F02727" stop-opacity="0.1"/>
<stop offset="1" stop-color="#F02727"/>
</linearGradient>
<linearGradient id="paint10_linear_597_2959" x1="32.9223" y1="6.65075" x2="32.9223" y2="30.4032" gradientUnits="userSpaceOnUse">
<stop stop-color="#F02727" stop-opacity="0.1"/>
<stop offset="0.0293865" stop-color="#F02727" stop-opacity="0.126448"/>
<stop offset="1" stop-color="#F02727"/>
</linearGradient>
<linearGradient id="paint11_linear_597_2959" x1="117.297" y1="35.9404" x2="117.297" y2="77.8864" gradientUnits="userSpaceOnUse">
<stop stop-color="#F02727"/>
<stop offset="1" stop-color="#F02727" stop-opacity="0.01"/>
</linearGradient>
<linearGradient id="paint12_linear_597_2959" x1="11.1172" y1="77.0479" x2="11.1172" y2="118.155" gradientUnits="userSpaceOnUse">
<stop stop-color="#FF8080"/>
<stop offset="1" stop-color="#FF8080" stop-opacity="0.01"/>
</linearGradient>
<linearGradient id="paint13_linear_597_2959" x1="139.203" y1="98.8594" x2="139.203" y2="139.966" gradientUnits="userSpaceOnUse">
<stop stop-color="#FF8080"/>
<stop offset="1" stop-color="#FF8080" stop-opacity="0.01"/>
</linearGradient>
<linearGradient id="paint14_linear_597_2959" x1="1.00391" y1="27.5518" x2="1.00391" y2="113.121" gradientUnits="userSpaceOnUse">
<stop stop-color="#F02727" stop-opacity="0.01"/>
<stop offset="1" stop-color="#F02727"/>
</linearGradient>
</defs>
</svg>
