<svg width="70" height="101" viewBox="0 0 70 101" fill="none" xmlns="http://www.w3.org/2000/svg">
<g id="&#229;&#174;&#154;&#228;&#189;&#141;&#229;&#155;&#190;&#230;&#160;&#135;-&#229;&#186;&#148;&#230;&#128;&#165;&#231;&#137;&#169;&#232;&#181;&#132;">
<g id="&#231;&#187;&#191;&#232;&#137;&#178;">
<g id="&#230;&#164;&#173;&#229;&#156;&#134; 1 &#230;&#139;&#183;&#232;&#180;&#157; 2">
<g filter="url(#filter0_i_107_417)">
<path fill-rule="evenodd" clip-rule="evenodd" d="M70 88.9137C70 95.3554 54.33 100.577 35 100.577C15.67 100.577 0 95.3554 0 88.9137C0 82.472 15.67 77.25 35 77.25C54.33 77.25 70 82.472 70 88.9137Z" fill="#6F89FF" fill-opacity="0.2"/>
</g>
<path d="M35 77.7705C44.6245 77.7705 53.3163 79.0715 59.584 81.1602C62.7205 82.2054 65.2209 83.4392 66.9268 84.7832C68.6385 86.1319 69.4795 87.5317 69.4795 88.9141C69.4793 90.2963 68.6384 91.6964 66.9268 93.0449C65.2209 94.3888 62.7203 95.6218 59.584 96.667C53.3163 98.7557 44.6246 100.057 35 100.057C25.3754 100.057 16.6837 98.7557 10.416 96.667C7.27972 95.6218 4.7791 94.3888 3.07324 93.0449C1.36164 91.6964 0.520657 90.2963 0.520508 88.9141C0.520508 87.5317 1.36149 86.1319 3.07324 84.7832C4.7791 83.4392 7.2795 82.2054 10.416 81.1602C16.6837 79.0715 25.3755 77.7705 35 77.7705Z" stroke="#6F89FF" stroke-width="1.04167" stroke-linecap="round" stroke-linejoin="round"/>
</g>
<path id="&#230;&#164;&#173;&#229;&#156;&#134; 1 &#230;&#139;&#183;&#232;&#180;&#157;" d="M35.2227 77.8242C42.6778 77.8242 49.4059 78.832 54.252 80.4463C56.6777 81.2543 58.6038 82.205 59.9121 83.2354C61.2261 84.2703 61.8457 85.3255 61.8457 86.3457C61.8457 87.3659 61.2261 88.4211 59.9121 89.4561C58.6038 90.4865 56.6777 91.4371 54.252 92.2451C49.4059 93.8594 42.6778 94.8672 35.2227 94.8672C27.7677 94.8672 21.0402 93.8593 16.1943 92.2451C13.7686 91.4371 11.8425 90.4865 10.5342 89.4561C9.22009 88.4211 8.59961 87.366 8.59961 86.3457C8.59963 85.3255 9.22008 84.2703 10.5342 83.2354C11.8425 82.205 13.7686 81.2543 16.1943 80.4463C21.0402 78.8321 27.7677 77.8243 35.2227 77.8242Z" fill="#6F89FF" fill-opacity="0.5" stroke="#6F89FF" stroke-width="1.04167" stroke-linecap="round" stroke-linejoin="round"/>
<g id="&#230;&#164;&#173;&#229;&#156;&#134; 1" filter="url(#filter1_d_107_417)">
<path fill-rule="evenodd" clip-rule="evenodd" d="M49.9355 83.0451C49.9355 85.7537 43.3481 87.9495 35.2222 87.9495C27.0962 87.9495 20.5088 85.7537 20.5088 83.0451C20.5088 80.3364 27.0962 78.1406 35.2222 78.1406C43.3481 78.1406 49.9355 80.3364 49.9355 83.0451Z" fill="url(#paint0_linear_107_417)"/>
<path d="M35.2217 78.6611C39.2441 78.6611 42.8645 79.2059 45.4609 80.0713C46.7619 80.5049 47.7777 81.0096 48.457 81.5449C49.1421 82.0848 49.415 82.5958 49.415 83.0449C49.415 83.4941 49.1421 84.005 48.457 84.5449C47.7777 85.0803 46.7619 85.5849 45.4609 86.0186C42.8645 86.884 39.2441 87.4287 35.2217 87.4287C31.1994 87.4287 27.5798 86.884 24.9834 86.0186C23.6824 85.5849 22.6666 85.0803 21.9873 84.5449C21.3022 84.005 21.0293 83.4941 21.0293 83.0449C21.0294 82.5958 21.3022 82.0848 21.9873 81.5449C22.6666 81.0096 23.6824 80.5049 24.9834 80.0713C27.5798 79.2059 31.1995 78.6612 35.2217 78.6611Z" stroke="#6F89FF" stroke-width="1.04167" stroke-linecap="round" stroke-linejoin="round"/>
</g>
<path id="&#232;&#183;&#175;&#229;&#190;&#132;" d="M35.2217 0.520508C48.7876 0.520508 59.7851 11.5181 59.7852 25.084C59.7852 31.695 57.174 37.6953 52.9258 42.1113C52.8593 42.1804 52.8148 42.265 52.7939 42.3545C50.6203 44.0863 48.4991 47.3144 46.5352 51.1328C44.4357 55.2147 42.473 60.0591 40.791 64.6953C39.1082 69.3337 37.702 73.7755 36.7168 77.0566C36.2242 78.6973 35.8368 80.0487 35.5723 80.9902C35.4402 81.4602 35.3381 81.8282 35.2695 82.0791H35.1826C31.3844 66.959 26.9572 57.0014 23.4561 50.8037C21.6904 47.6781 20.1606 45.5094 19.0674 44.1172C18.5208 43.4211 18.0836 42.919 17.7803 42.5889C17.7389 42.5439 17.6984 42.5035 17.6621 42.4648C17.6601 42.3355 17.6118 42.2083 17.5186 42.1113C13.2701 37.6953 10.6582 31.6952 10.6582 25.084C10.6583 11.5181 21.6558 0.520558 35.2217 0.520508Z" fill="url(#paint1_linear_107_417)" stroke="#6F89FF" stroke-width="1.04167" stroke-linecap="round" stroke-linejoin="round"/>
<path id="&#230;&#164;&#173;&#229;&#156;&#134; 2 &#230;&#139;&#183;&#232;&#180;&#157;" d="M35 7.0625C44.9929 7.0625 53.0937 15.1633 53.0938 25.1562C53.0938 35.1492 44.9929 43.25 35 43.25C25.0071 43.25 16.9062 35.1492 16.9062 25.1562C16.9063 15.1633 25.0071 7.0625 35 7.0625Z" fill="#E7ECFF" stroke="#6F89FF" stroke-linecap="round" stroke-linejoin="round"/>
</g>
<g id="&#229;&#186;&#148;&#230;&#128;&#165;&#231;&#137;&#169;&#232;&#181;&#132;&#232;&#163;&#133;&#229;&#164;&#135;&#231;&#148;&#159;&#228;&#186;&#167;&#231;&#187;&#143;&#232;&#144;&#165;&#228;&#188;&#129;&#228;&#184;&#154; (1)">
<g id="Vector">
<path d="M36.4848 21.6253C36.4547 21.6199 36.4242 21.6169 36.3936 21.6162C36.3217 21.6162 36.2504 21.6305 36.1839 21.6584C36.1174 21.6863 36.057 21.7272 36.0061 21.7787C35.9553 21.8303 35.9149 21.8915 35.8874 21.9589C35.8599 22.0263 35.8457 22.0985 35.8457 22.1714V27.2233C35.8457 27.5109 36.0623 27.7447 36.3388 27.7729V27.8062H41.2162C41.2689 27.8237 41.3238 27.8331 41.3792 27.834C41.5246 27.834 41.6639 27.7755 41.7666 27.6713C41.8694 27.5672 41.9271 27.426 41.9271 27.2788V22.2269C41.9269 22.0896 41.8763 21.9573 41.7852 21.8557C41.694 21.754 41.5689 21.6904 41.434 21.6771V21.6253H36.4848ZM39.9548 24.3045H37.8181C37.68 24.3045 37.5477 24.2489 37.45 24.15C37.3524 24.0511 37.2976 23.917 37.2976 23.7771C37.2976 23.6372 37.3524 23.5031 37.45 23.4042C37.5477 23.3053 37.68 23.2497 37.8181 23.2497H39.9548C40.0928 23.2497 40.2252 23.3053 40.3228 23.4042C40.4204 23.5031 40.4753 23.6372 40.4753 23.7771C40.4753 23.917 40.4204 24.0511 40.3228 24.15C40.2252 24.2489 40.0928 24.3045 39.9548 24.3045ZM38.0004 28.7095V28.6578H33.0516C33.0213 28.6522 32.9907 28.6491 32.96 28.6485C32.8147 28.6485 32.6753 28.707 32.5726 28.8111C32.4698 28.9152 32.4121 29.0564 32.4121 29.2036V34.2555C32.4121 34.5431 32.6286 34.7769 32.9052 34.8051V34.8385H37.783C37.8347 34.8549 37.8886 34.8662 37.9456 34.8662C38.0909 34.8662 38.2303 34.8077 38.333 34.7036C38.4358 34.5995 38.4935 34.4583 38.4935 34.3111V29.2591C38.4933 29.1219 38.4427 28.9896 38.3515 28.888C38.2604 28.7864 38.1352 28.7228 38.0004 28.7095ZM36.5212 31.3363H34.3845C34.2464 31.3363 34.114 31.2807 34.0164 31.1818C33.9188 31.0829 33.864 30.9488 33.864 30.8089C33.864 30.669 33.9188 30.5349 34.0164 30.436C34.114 30.3371 34.2464 30.2815 34.3845 30.2815H36.5212C36.6592 30.2815 36.7916 30.3371 36.8892 30.436C36.9868 30.5349 37.0416 30.669 37.0416 30.8089C37.0416 30.9488 36.9868 31.0829 36.8892 31.1818C36.7916 31.2807 36.6592 31.3363 36.5212 31.3363ZM44.794 28.7095V28.6578H39.8452C39.815 28.6522 39.7843 28.6491 39.7536 28.6485C39.6817 28.6485 39.6104 28.6628 39.5439 28.6907C39.4775 28.7186 39.4171 28.7595 39.3662 28.8111C39.3153 28.8626 39.275 28.9238 39.2474 28.9912C39.2199 29.0585 39.2057 29.1307 39.2057 29.2036V34.2555C39.2057 34.5431 39.4222 34.7769 39.6988 34.8051V34.8385H44.5766C44.6283 34.8549 44.6823 34.8662 44.7392 34.8662C44.8845 34.8662 45.0239 34.8077 45.1266 34.7036C45.2294 34.5995 45.2871 34.4583 45.2871 34.3111V29.2591C45.2869 29.1219 45.2363 28.9896 45.1451 28.888C45.054 28.7864 44.9289 28.7228 44.794 28.7095ZM43.3148 31.3363H41.1781C41.04 31.3363 40.9076 31.2807 40.81 31.1818C40.7124 31.0829 40.6576 30.9488 40.6576 30.8089C40.6576 30.669 40.7124 30.5349 40.81 30.436C40.9076 30.3371 41.04 30.2815 41.1781 30.2815H43.3148C43.4528 30.2815 43.5852 30.3371 43.6828 30.436C43.7804 30.5349 43.8352 30.669 43.8352 30.8089C43.8352 30.9488 43.7804 31.0829 43.6828 31.1818C43.5852 31.2807 43.4528 31.3363 43.3148 31.3363Z" fill="url(#paint2_linear_107_417)"/>
<path d="M28.6633 22.7745H28.6215L34.4427 17.6934L37.9251 20.8234H41.0371L34.6281 15.1162L24.6621 23.8058L25.9216 25.1313L26.8107 24.355V34.7412H30.923V32.9001H28.6633V22.7745Z" fill="url(#paint3_linear_107_417)"/>
<path d="M29.6621 23.4912H33.0371V26.6162H29.6621V23.4912Z" fill="url(#paint4_linear_107_417)"/>
</g>
</g>
</g>
<defs>
<filter id="filter0_i_107_417" x="0" y="77.25" width="70" height="23.3271" filterUnits="userSpaceOnUse" color-interpolation-filters="sRGB">
<feFlood flood-opacity="0" result="BackgroundImageFix"/>
<feBlend mode="normal" in="SourceGraphic" in2="BackgroundImageFix" result="shape"/>
<feColorMatrix in="SourceAlpha" type="matrix" values="0 0 0 0 0 0 0 0 0 0 0 0 0 0 0 0 0 0 127 0" result="hardAlpha"/>
<feOffset/>
<feGaussianBlur stdDeviation="2"/>
<feComposite in2="hardAlpha" operator="arithmetic" k2="-1" k3="1"/>
<feColorMatrix type="matrix" values="0 0 0 0 0.435294 0 0 0 0 0.537255 0 0 0 0 1 0 0 0 0.25 0"/>
<feBlend mode="normal" in2="shape" result="effect1_innerShadow_107_417"/>
</filter>
<filter id="filter1_d_107_417" x="16.5088" y="75.1406" width="37.4268" height="17.8086" filterUnits="userSpaceOnUse" color-interpolation-filters="sRGB">
<feFlood flood-opacity="0" result="BackgroundImageFix"/>
<feColorMatrix in="SourceAlpha" type="matrix" values="0 0 0 0 0 0 0 0 0 0 0 0 0 0 0 0 0 0 127 0" result="hardAlpha"/>
<feOffset dy="1"/>
<feGaussianBlur stdDeviation="2"/>
<feColorMatrix type="matrix" values="0 0 0 0 0.435294 0 0 0 0 0.537255 0 0 0 0 1 0 0 0 1 0"/>
<feBlend mode="normal" in2="BackgroundImageFix" result="effect1_dropShadow_107_417"/>
<feBlend mode="normal" in="SourceGraphic" in2="effect1_dropShadow_107_417" result="shape"/>
</filter>
<linearGradient id="paint0_linear_107_417" x1="49.9355" y1="87.9495" x2="49.9355" y2="78.1406" gradientUnits="userSpaceOnUse">
<stop stop-color="#1F2E73"/>
<stop offset="1" stop-color="#6F89FF"/>
</linearGradient>
<linearGradient id="paint1_linear_107_417" x1="60.3059" y1="82.5999" x2="60.3059" y2="0" gradientUnits="userSpaceOnUse">
<stop stop-color="#DFE5FF"/>
<stop offset="1" stop-color="#6F89FF"/>
</linearGradient>
<linearGradient id="paint2_linear_107_417" x1="31.3499" y1="23.491" x2="31.3499" y2="34.3743" gradientUnits="userSpaceOnUse">
<stop stop-color="#4062FF"/>
<stop offset="1" stop-color="#728AFF"/>
</linearGradient>
<linearGradient id="paint3_linear_107_417" x1="31.3499" y1="23.491" x2="31.3499" y2="34.3743" gradientUnits="userSpaceOnUse">
<stop stop-color="#4062FF"/>
<stop offset="1" stop-color="#728AFF"/>
</linearGradient>
<linearGradient id="paint4_linear_107_417" x1="31.3499" y1="23.491" x2="31.3499" y2="34.3743" gradientUnits="userSpaceOnUse">
<stop stop-color="#4062FF"/>
<stop offset="1" stop-color="#728AFF"/>
</linearGradient>
</defs>
</svg>
